<?xml version="1.0" standalone="no"?>
<!DOCTYPE svg PUBLIC "-//W3C//DTD SVG 20010904//EN"
 "http://www.w3.org/TR/2001/REC-SVG-20010904/DTD/svg10.dtd">
<svg version="1.0" xmlns="http://www.w3.org/2000/svg"
 width="512.000000pt" height="512.000000pt" viewBox="0 0 512.000000 512.000000"
 preserveAspectRatio="xMidYMid meet">
<metadata>
Created by potrace 1.14, written by Peter Selinger 2001-2017
</metadata>
<g transform="translate(0.000000,512.000000) scale(0.100000,-0.100000)"
fill="#000000" stroke="none">
<path d="M2150 3215 c-218 -88 -385 -159 -515 -220 -140 -66 -166 -75 -213
-79 -26 -3 -81 -7 -122 -11 -41 -4 -86 -8 -100 -10 -14 -2 -54 -6 -90 -10 -36
-3 -76 -8 -90 -10 -23 -4 -66 -10 -137 -20 -97 -12 -303 -49 -397 -71 -245
-56 -339 -96 -410 -175 -58 -65 -75 -121 -71 -236 3 -78 8 -101 34 -156 47
-98 116 -164 211 -201 44 -18 311 -68 319 -60 2 2 -8 26 -23 54 -15 27 -25 50
-21 50 3 0 1 9 -5 20 -18 33 -20 156 -4 216 28 108 88 194 177 254 237 160
556 46 646 -230 29 -90 16 -235 -29 -314 -11 -20 -20 -39 -20 -42 0 -4 310 -2
1525 11 171 2 419 4 553 5 150 1 242 5 242 11 0 5 -9 27 -19 47 -46 91 -43
228 8 337 124 266 466 331 681 129 114 -106 160 -292 109 -441 l-17 -51 41 3
c59 5 437 18 464 17 33 -2 129 120 181 228 60 128 74 238 37 310 -23 46 -90
107 -195 179 -160 110 -326 183 -543 240 -67 18 -92 22 -207 37 -25 3 -110 26
-190 51 -80 25 -157 47 -171 50 -35 5 -75 -28 -89 -75 -19 -58 -7 -54 -205
-67 -55 -4 -118 -8 -140 -10 -22 -2 -79 -7 -127 -10 l-87 -5 -5 32 c-3 18 -8
50 -11 70 -7 45 -41 67 -94 62 -52 -4 -71 -35 -71 -116 0 -38 -3 -68 -7 -69
-32 -4 -90 -7 -233 -13 -91 -4 -196 -8 -235 -11 -38 -2 -131 -6 -205 -9 l-135
-6 0 28 c-1 15 -4 37 -9 50 -7 21 2 26 121 83 70 34 146 69 168 79 85 37 93
98 18 138 -53 29 -83 22 -293 -63z"/>
<path d="M808 2551 c-149 -60 -244 -185 -252 -332 -10 -203 150 -384 350 -393
58 -3 85 1 149 17 20 6 81 40 112 65 77 58 149 217 137 302 -10 70 -13 87 -25
120 -31 88 -105 165 -198 208 -76 35 -204 41 -273 13z m91 -181 c-2 -66 -21
-72 -70 -24 l-38 38 28 17 c30 18 62 28 73 22 4 -2 7 -26 7 -53z m143 31 l28
-17 -38 -37 c-52 -50 -69 -43 -69 28 0 54 0 55 26 49 14 -4 38 -14 53 -23z
m98 -103 c29 -64 27 -68 -34 -68 -71 0 -78 18 -28 69 20 22 38 40 40 40 2 1
12 -18 22 -41z m-354 -3 c45 -48 37 -65 -32 -65 -30 0 -54 4 -54 10 0 21 33
90 42 90 6 0 26 -16 44 -35z m24 -146 c7 -10 -1 -25 -27 -51 -20 -20 -39 -35
-43 -33 -11 7 -40 71 -40 87 0 19 98 17 110 -3z m342 -14 c-2 -17 -10 -41 -19
-54 l-15 -23 -38 37 c-51 50 -43 71 27 70 47 0 48 -1 45 -30z m-104 -102 l22
-22 -23 -16 c-13 -8 -37 -18 -55 -21 l-32 -6 1 51 c2 59 22 81 49 53 9 -10 26
-27 38 -39z m-151 -12 l2 -53 -31 6 c-18 3 -42 13 -55 22 l-24 15 36 35 c51
49 69 43 72 -25z"/>
<path d="M3873 2555 c-57 -18 -141 -76 -176 -120 -16 -20 -40 -61 -55 -93 -23
-49 -27 -70 -27 -148 0 -83 3 -96 34 -157 144 -284 536 -283 673 2 29 59 32
75 32 156 0 76 -4 99 -26 147 -15 32 -39 73 -53 92 -35 46 -119 102 -180 121
-60 18 -164 18 -222 0z m79 -142 c7 -36 -5 -95 -19 -100 -14 -5 -83 55 -83 72
0 6 79 44 92 45 3 0 8 -8 10 -17z m141 -10 c15 -7 27 -16 27 -19 0 -8 -63 -74
-71 -74 -22 0 -34 30 -31 74 4 51 10 52 75 19z m117 -145 l9 -28 -55 0 c-73 0
-80 18 -28 71 l38 39 14 -26 c8 -15 18 -40 22 -56z m-371 38 c47 -48 37 -66
-33 -66 l-55 0 9 29 c10 37 29 71 38 71 5 0 23 -15 41 -34z m29 -150 c2 -9
-13 -33 -33 -54 -35 -36 -37 -36 -48 -17 -16 27 -36 82 -32 87 2 2 28 3 57 2
41 -1 54 -5 56 -18z m346 -1 c-11 -37 -35 -85 -43 -85 -10 0 -71 67 -71 78 0
18 22 27 70 27 45 0 49 -1 44 -20z m-262 -77 c2 -7 1 -34 -2 -60 l-5 -47 -45
20 c-24 11 -46 22 -49 25 -3 2 11 20 29 39 35 36 65 45 72 23z m138 -23 c18
-19 32 -36 29 -39 -13 -12 -71 -36 -86 -36 -15 0 -18 8 -17 43 2 77 22 86 74
32z"/>
</g>
</svg>
